<svg width="18" height="18" viewBox="0 0 18 18" fill="none" xmlns="http://www.w3.org/2000/svg">
<path fill-rule="evenodd" clip-rule="evenodd" d="M6.86898 0C6.20027 0 5.57581 0.334201 5.20488 0.890599L4.16829 2.44548C4.12124 2.51605 4.08434 2.59044 4.05726 2.66691H3.66706H1C0.447715 2.66691 0 3.11462 0 3.66691C0 4.21919 0.447715 4.66691 1 4.66691H2.66706V16.0014C2.66706 17.106 3.56249 18.0014 4.66706 18.0014H13.3347C14.4392 18.0014 15.3347 17.106 15.3347 16.0014V4.66691H17.0014C17.5537 4.66691 18.0014 4.21919 18.0014 3.66691C18.0014 3.11462 17.5537 2.66691 17.0014 2.66691H13.9441C13.9171 2.59044 13.8802 2.51605 13.8331 2.44548L12.7965 0.890599C12.4256 0.334202 11.8011 0 11.1324 0H6.86898ZM11.577 2.66691L11.1324 2L6.86898 2L6.42437 2.66691H11.577ZM4.66706 16.0014V4.66691H13.3347V16.0014H4.66706ZM7.00052 5.33378C7.5528 5.33378 8.00051 5.7815 8.00051 6.33378V14.3345C8.00051 14.8868 7.5528 15.3345 7.00052 15.3345C6.44823 15.3345 6.00052 14.8868 6.00052 14.3345V6.33378C6.00052 5.7815 6.44823 5.33378 7.00052 5.33378ZM12.0009 6.33378C12.0009 5.7815 11.5531 5.33378 11.0009 5.33378C10.4486 5.33378 10.0009 5.7815 10.0009 6.33378V14.3345C10.0009 14.8868 10.4486 15.3345 11.0009 15.3345C11.5531 15.3345 12.0009 14.8868 12.0009 14.3345V6.33378Z" fill="#CE0000"/>
</svg>
