<svg width="14" height="14" viewBox="0 0 14 14" fill="none" xmlns="http://www.w3.org/2000/svg">
<path fill-rule="evenodd" clip-rule="evenodd" d="M13.7071 1.70711C14.0976 1.31658 14.0976 0.683417 13.7071 0.292893C13.3166 -0.0976311 12.6834 -0.0976311 12.2929 0.292893L6.99999 5.58579L1.7071 0.292893C1.31657 -0.0976311 0.68341 -0.0976311 0.292886 0.292893C-0.0976387 0.683417 -0.0976387 1.31658 0.292886 1.70711L5.58578 7L0.292886 12.2929C-0.0976387 12.6834 -0.0976387 13.3166 0.292886 13.7071C0.68341 14.0976 1.31657 14.0976 1.7071 13.7071L6.99999 8.41421L12.2929 13.7071C12.6834 14.0976 13.3166 14.0976 13.7071 13.7071C14.0976 13.3166 14.0976 12.6834 13.7071 12.2929L8.41421 7L13.7071 1.70711Z" fill="#7F7F7F"/>
</svg>
