<svg width="49" height="49" viewBox="0 0 49 49" fill="none" xmlns="http://www.w3.org/2000/svg">
<rect width="49" height="49" fill="url(#paint0_linear_89_548)"/>
<path fill-rule="evenodd" clip-rule="evenodd" d="M6 11.3563L9.10439 10.1258C12.8915 8.62473 17.1085 8.62473 20.8956 10.1258L24 11.3563H6ZM6 11.3564H24V39.0027L20.8956 37.7723C17.1085 36.2712 12.8915 36.2712 9.10439 37.7723L6 39.0027V11.3564ZM6 39.0027V39.0028H24V39.0027H6ZM25 11.3563L28.1044 10.1258C31.8915 8.62473 36.1085 8.62473 39.8956 10.1258L43 11.3563H25ZM25 11.3564H43V39.0027L39.8956 37.7723C36.1085 36.2712 31.8915 36.2712 28.1044 37.7723L25 39.0027V11.3564ZM25 39.0027V39.0028H43V39.0027H25Z" fill="white"/>
<defs>
<linearGradient id="paint0_linear_89_548" x1="24.5" y1="0" x2="24.5" y2="49" gradientUnits="userSpaceOnUse">
<stop stop-color="#FFD0FF"/>
<stop offset="1" stop-color="#DCF0FF"/>
</linearGradient>
</defs>
</svg>
